<mxfile host="65bd71144e">
    <diagram id="NaQvc3_Vk8Xr-uYyhnr4" name="Page-1">
        <mxGraphModel dx="1372" dy="705" grid="1" gridSize="10" guides="1" tooltips="1" connect="1" arrows="1" fold="1" page="1" pageScale="1" pageWidth="1000" pageHeight="700" math="0" shadow="0">
            <root>
                <mxCell id="0"/>
                <mxCell id="1" parent="0"/>
                <mxCell id="27" value="backend" style="rounded=0;whiteSpace=wrap;html=1;fontFamily=Liberation Mono;fontSize=16;align=right;spacingRight=16;strokeColor=#36393d;fontStyle=1;dashed=1;dashPattern=1 4;fillColor=#E6E6E6;opacity=30;" parent="1" vertex="1">
                    <mxGeometry y="20" width="920" height="80" as="geometry"/>
                </mxCell>
                <mxCell id="26" value="frontend" style="rounded=0;whiteSpace=wrap;html=1;fontFamily=Liberation Mono;fontSize=16;strokeColor=none;align=right;spacingRight=16;fontStyle=1;dashed=1;dashPattern=1 4;fillColor=#CC00CC;opacity=20;" parent="1" vertex="1">
                    <mxGeometry y="100" width="920" height="320" as="geometry"/>
                </mxCell>
                <mxCell id="2" value="layout" style="rounded=1;whiteSpace=wrap;html=1;fontFamily=Liberation Mono;fontStyle=0;fontSize=14;align=center;spacingLeft=0;spacing=0;" parent="1" vertex="1">
                    <mxGeometry x="360" y="200" width="120" height="40" as="geometry"/>
                </mxCell>
                <mxCell id="4" style="edgeStyle=orthogonalEdgeStyle;html=1;exitX=0.5;exitY=1;exitDx=0;exitDy=0;entryX=0.5;entryY=0;entryDx=0;entryDy=0;fontFamily=Liberation Mono;fontSize=18;endArrow=blockThin;endFill=1;" parent="1" source="3" target="2" edge="1">
                    <mxGeometry relative="1" as="geometry"/>
                </mxCell>
                <mxCell id="3" value="mapping" style="rounded=1;whiteSpace=wrap;html=1;fontFamily=Liberation Mono;fontStyle=0;fontSize=14;align=center;spacingLeft=0;spacing=0;" parent="1" vertex="1">
                    <mxGeometry x="360" y="120" width="120" height="40" as="geometry"/>
                </mxCell>
                <mxCell id="6" style="edgeStyle=orthogonalEdgeStyle;html=1;exitX=1;exitY=0.5;exitDx=0;exitDy=0;entryX=0;entryY=0.5;entryDx=0;entryDy=0;fontFamily=Liberation Mono;fontSize=18;endArrow=blockThin;endFill=1;" parent="1" source="5" target="3" edge="1">
                    <mxGeometry relative="1" as="geometry"/>
                </mxCell>
                <mxCell id="12" style="edgeStyle=orthogonalEdgeStyle;html=1;exitX=0.5;exitY=1;exitDx=0;exitDy=0;entryX=0;entryY=0.5;entryDx=0;entryDy=0;fontFamily=Liberation Mono;fontSize=18;endArrow=blockThin;endFill=1;" parent="1" source="5" target="2" edge="1">
                    <mxGeometry relative="1" as="geometry"/>
                </mxCell>
                <mxCell id="5" value="manager" style="rounded=1;whiteSpace=wrap;html=1;fontFamily=Liberation Mono;fontStyle=0;fontSize=14;align=center;spacing=0;spacingLeft=0;" parent="1" vertex="1">
                    <mxGeometry x="200" y="120" width="120" height="40" as="geometry"/>
                </mxCell>
                <mxCell id="9" style="edgeStyle=orthogonalEdgeStyle;html=1;fontFamily=Liberation Mono;fontSize=18;endArrow=blockThin;endFill=1;" parent="1" source="64" target="2" edge="1">
                    <mxGeometry relative="1" as="geometry"/>
                </mxCell>
                <mxCell id="38" style="edgeStyle=orthogonalEdgeStyle;html=1;entryX=0;entryY=0.5;entryDx=0;entryDy=0;fontFamily=Liberation Mono;fontSize=18;endArrow=blockThin;endFill=1;exitX=0.5;exitY=1;exitDx=0;exitDy=0;" parent="1" source="64" target="63" edge="1">
                    <mxGeometry relative="1" as="geometry">
                        <mxPoint x="360" y="380" as="targetPoint"/>
                    </mxGeometry>
                </mxCell>
                <mxCell id="52" style="edgeStyle=orthogonalEdgeStyle;html=1;exitX=0.5;exitY=0;exitDx=0;exitDy=0;entryX=0.5;entryY=1;entryDx=0;entryDy=0;endArrow=blockThin;endFill=1;startArrow=none;startFill=0;" parent="1" source="10" target="28" edge="1">
                    <mxGeometry relative="1" as="geometry"/>
                </mxCell>
                <mxCell id="56" style="edgeStyle=orthogonalEdgeStyle;html=1;exitX=0.5;exitY=1;exitDx=0;exitDy=0;entryX=0;entryY=0.5;entryDx=0;entryDy=0;endArrow=blockThin;endFill=1;" parent="1" source="10" target="64" edge="1">
                    <mxGeometry relative="1" as="geometry"/>
                </mxCell>
                <mxCell id="57" style="edgeStyle=orthogonalEdgeStyle;html=1;exitX=1;exitY=0.5;exitDx=0;exitDy=0;entryX=0;entryY=0.5;entryDx=0;entryDy=0;endArrow=blockThin;endFill=1;" parent="1" source="10" target="5" edge="1">
                    <mxGeometry relative="1" as="geometry">
                        <Array as="points">
                            <mxPoint x="180" y="140"/>
                            <mxPoint x="180" y="140"/>
                        </Array>
                    </mxGeometry>
                </mxCell>
                <mxCell id="58" style="edgeStyle=orthogonalEdgeStyle;html=1;exitX=0.5;exitY=1;exitDx=0;exitDy=0;entryX=0;entryY=0.5;entryDx=0;entryDy=0;endArrow=blockThin;endFill=1;" parent="1" source="10" target="2" edge="1">
                    <mxGeometry relative="1" as="geometry"/>
                </mxCell>
                <mxCell id="10" value="rendition" style="rounded=1;whiteSpace=wrap;html=1;fontFamily=Liberation Mono;fontStyle=0;fontSize=14;align=center;spacing=0;spacingLeft=0;" parent="1" vertex="1">
                    <mxGeometry x="40" y="120" width="120" height="40" as="geometry"/>
                </mxCell>
                <mxCell id="19" style="edgeStyle=orthogonalEdgeStyle;html=1;fontFamily=Liberation Mono;fontSize=18;endArrow=blockThin;endFill=1;entryX=0.5;entryY=1;entryDx=0;entryDy=0;" parent="1" source="63" target="16" edge="1">
                    <mxGeometry relative="1" as="geometry"/>
                </mxCell>
                <mxCell id="18" style="edgeStyle=orthogonalEdgeStyle;html=1;exitX=0.5;exitY=0;exitDx=0;exitDy=0;fontFamily=Liberation Mono;fontSize=18;endArrow=blockThin;endFill=1;" parent="1" source="16" target="17" edge="1">
                    <mxGeometry relative="1" as="geometry"/>
                </mxCell>
                <mxCell id="61" style="edgeStyle=orthogonalEdgeStyle;shape=connector;rounded=1;html=1;exitX=0;exitY=0.5;exitDx=0;exitDy=0;entryX=0.5;entryY=1;entryDx=0;entryDy=0;labelBackgroundColor=default;strokeColor=default;fontFamily=Liberation Mono;fontSize=18;fontColor=default;endArrow=blockThin;endFill=1;" parent="1" source="16" target="2" edge="1">
                    <mxGeometry relative="1" as="geometry"/>
                </mxCell>
                <mxCell id="16" value="[view]" style="rounded=1;whiteSpace=wrap;html=1;fontFamily=Liberation Mono;fontStyle=0;fontSize=14;align=center;spacingLeft=0;spacing=0;" parent="1" vertex="1">
                    <mxGeometry x="520" y="280" width="120" height="40" as="geometry"/>
                </mxCell>
                <mxCell id="22" style="edgeStyle=orthogonalEdgeStyle;html=1;exitX=0;exitY=0.5;exitDx=0;exitDy=0;entryX=1;entryY=0.5;entryDx=0;entryDy=0;fontFamily=Liberation Mono;fontSize=18;endArrow=blockThin;endFill=1;" parent="1" source="17" target="2" edge="1">
                    <mxGeometry relative="1" as="geometry"/>
                </mxCell>
                <mxCell id="17" value="contents" style="rounded=1;whiteSpace=wrap;html=1;fontFamily=Liberation Mono;fontStyle=0;fontSize=14;align=center;spacing=0;spacingLeft=0;" parent="1" vertex="1">
                    <mxGeometry x="520" y="200" width="120" height="40" as="geometry"/>
                </mxCell>
                <mxCell id="28" value="book" style="rounded=1;whiteSpace=wrap;html=1;fontFamily=Liberation Mono;fontStyle=0;fontSize=14;align=center;spacing=0;spacingLeft=0;" parent="1" vertex="1">
                    <mxGeometry x="40" y="40" width="120" height="40" as="geometry"/>
                </mxCell>
                <mxCell id="63" value="views" style="rounded=1;whiteSpace=wrap;html=1;fontFamily=Liberation Mono;fontSize=14;fontColor=default;fontStyle=0;spacing=0;spacingLeft=0;" parent="1" vertex="1">
                    <mxGeometry x="360" y="360" width="120" height="40" as="geometry"/>
                </mxCell>
                <mxCell id="64" value="viewport" style="rounded=1;whiteSpace=wrap;html=1;fontFamily=Liberation Mono;fontSize=14;fontColor=default;fontStyle=0;spacing=0;spacingLeft=0;" parent="1" vertex="1">
                    <mxGeometry x="200" y="280" width="120" height="40" as="geometry"/>
                </mxCell>
            </root>
        </mxGraphModel>
    </diagram>
</mxfile>